<svg width="276.863" height="61.824" viewBox="0 0 73.253 16.358" xmlns="http://www.w3.org/2000/svg">
    <defs>
        <path id="a" d="M122.923 448.468h597.056v132.379H122.923z"/>
    </defs>
    <g style="display:inline">
        <path style="fill:#d22222;stroke-width:.264583" d="M75.334 124.865h7.998c2.007 0 5.966.802 4.959 2.359-3.627 5.608 1.417 2.491 1.417 4.016v1.072a6.361 6.361 0 0 1-6.376 6.376h-7.998c25.663 0-6.375-19.658-6.375-6.376v-1.072a6.361 6.361 0 0 1 6.375-6.375z" transform="translate(-47.277 -123.351)"/>
    </g>
    <g style="display:inline">
        <path style="font-size:16.9333px;line-height:1.25;font-family:'Ink Free';-inkscape-font-specification:'Ink Free, Normal';fill:#f2f2f2;stroke-width:.999999" d="M287.867 466.209c-.341 0-.575.085-.703.256-.085.17-.17.47-.256.896-.213 1.11-.32 2.944-.32 5.504 0 .299.063 2.817.191 7.553l.13 5.375c-1.963 6.699-4.29 12.694-6.977 17.984-2.646 5.248-5.526 7.871-8.641 7.871-.981 0-1.685-.447-2.111-1.343a6.61 6.61 0 0 1-.64-2.88c0-2.9.916-6.037 2.751-9.407 1.835-3.371 3.905-6.274 6.209-8.706 2.347-2.474 3.967-3.71 4.863-3.71.214 0 .342.041.385.127.043.085.063.235.063.449 0 .17-.105.511-.319 1.023-.213.512-.32.875-.32 1.088 0 .085.041.17.127.256.128.043.235.064.32.064.085 0 .363-.32.832-.96.512-.64.96-1.344 1.344-2.112.427-.81.64-1.514.64-2.111 0-.896-.683-1.344-2.048-1.344-1.408 0-3.584 1.429-6.528 4.287-2.9 2.859-5.504 6.272-7.808 10.24-2.262 3.968-3.39 7.638-3.39 11.008 0 2.56.489 4.524 1.47 5.889 1.024 1.365 2.262 2.047 3.713 2.047 3.2 0 6.166-2.283 8.896-6.848 2.774-4.608 5.248-10.41 7.424-17.408.085 1.323.149 2.965.191 4.928.043 1.92.065 3.477.065 4.672l-.065 3.584c-.128 2.56-.19 5.014-.19 7.36 0 .64.062 1.152.19 1.536.171.341.49.512.96.512.34 0 .81-.192 1.408-.576.64-.384.96-.789.96-1.215 0-.256-.085-.981-.255-2.176a36.14 36.14 0 0 1-.13-.832 5.908 5.908 0 0 1-.064-.832c-.128-1.579-.298-4.885-.511-9.92a355.297 355.297 0 0 1-.32-14.912c0-2.518.043-5.014.128-7.488.086-2.518.13-4.204.13-5.057l.126-3.135c0-.47-.214-.832-.64-1.088-.427-.298-.853-.449-1.28-.449zm111.809 1.537c-.896 0-1.344.49-1.344 1.47 0 .257.02.534.063.833l.128.767c.043.214.085.45.127.705.043.214.065.448.065.704.128 1.365.364 6.849.705 16.449.341 9.6.512 16.873.512 21.822 0 .427.17.918.511 1.473.342.512.66.767.96.767 1.109 0 1.836-.747 2.177-2.24a38.197 38.197 0 0 1 2.623-7.998c1.152-2.517 2.347-4.673 3.584-6.465 1.621-2.346 3.37-4.244 5.248-5.695 1.877-1.45 3.712-2.178 5.504-2.178.81 0 1.387.214 1.729.64.384.385.576.983.576 1.794 0 2.048-.684 4.415-2.05 7.103-1.364 2.688-3.262 5.248-5.694 7.68-2.432 2.39-5.12 4.224-8.065 5.504-.81.341-1.429.747-1.855 1.217-.384.469-.577.939-.577 1.408 0 .47.15.873.448 1.215.298.341.683.511 1.152.511.939 0 2.347-.703 4.225-2.11 4.48-3.286 8.17-7.062 11.072-11.329 2.901-4.31 4.352-8.278 4.352-11.904 0-1.622-.428-2.858-1.282-3.711-.81-.854-1.876-1.282-3.199-1.282-1.92 0-4.054.833-6.4 2.497-2.347 1.62-4.522 3.798-6.528 6.529a53.305 53.305 0 0 0-3.2 4.863c-.982 1.75-1.707 3.328-2.177 4.736-.17-.298-.34-1.792-.511-4.48-.299-5.461-.448-13.27-.448-23.424v-3.392c0-1.152-.235-2.177-.705-3.073-.426-.938-1-1.406-1.726-1.406zm-101.697 3.455c-.47 0-.937.214-1.407.64-.426.427-.64.875-.64 1.345 0 .384.362.873 1.088 1.47.768.598 1.514.897 2.24.897 1.408 0 2.111-.32 2.111-.96 0-.127-.214-.47-.64-1.025a14.008 14.008 0 0 0-1.15-1.343c-.428-.47-.812-.747-1.153-.832zm49.537 3.457c-.939 0-1.579.426-1.92 1.28-.299.725-.513 1.557-.64 2.496-.086.896-.128 2.175-.128 3.84 0 1.023.042 2.517.127 4.48a62.78 62.78 0 0 1 .129 3.52c-1.024.17-2.966.533-5.824 1.087-.342.086-1.132.256-2.37.512-1.237.213-2.174.32-2.814.32-.896 0-1.536.086-1.92.256-.384.17-.576.533-.576 1.088 0 .512.212.918.639 1.217.47.299.96.447 1.472.447.427 0 1.77-.234 4.032-.703a130.413 130.413 0 0 1 7.361-1.408c0 2.176.02 4.436.062 6.783.086 2.304.193 4.33.32 6.08a82.74 82.74 0 0 0 .513 5.377c.256 1.621.513 2.729.77 3.326.127.342.276.577.446.705a.87.87 0 0 0 .64.256c.47 0 .96-.192 1.472-.576.554-.341.832-.726.832-1.152-.043-.171-.277-.918-.703-2.24-.427-1.323-.726-3.221-.897-5.696a188.01 188.01 0 0 1-.32-6.4 398.205 398.205 0 0 1-.065-6.977l4.16-.703c.47-.085 2.667-.47 6.592-1.152 1.622-.214 2.731-.513 3.328-.897.64-.383.96-.938.961-1.662v-.002c0-.554-.256-1.088-.767-1.6-.47-.554-.94-.832-1.409-.832-.256 0-.511.258-.767.77-.213.512-.49.81-.832.895-5.675 1.28-9.473 2.07-11.393 2.369l-.064-1.729a123.336 123.336 0 0 1-.127-5.312c0-2.048.105-3.69.318-4.928.214-1.237.32-1.984.32-2.24 0-.342-.063-.575-.19-.703-.129-.128-.384-.192-.768-.192zm-23.745 7.424c-2.218 0-4.437 1.535-6.656 4.607-2.218 3.072-4.053 6.698-5.504 10.88-1.45 4.18-2.175 7.638-2.175 10.368 0 1.835.51 3.456 1.535 4.864 1.066 1.408 2.412 2.111 4.033 2.111 1.92 0 3.754-.725 5.504-2.176 1.792-1.45 3.797-3.519 6.015-6.207a35.42 35.42 0 0 0 2.623-3.584c.896-1.322 1.346-2.113 1.346-2.369 0-.384-.257-.574-.77-.574-.17 0-.467.277-.894.832-.384.512-.62.831-.705.959-1.28 1.707-3.071 3.733-5.375 6.08-1.237 1.237-2.432 2.198-3.584 2.88-1.11.684-2.347 1.024-3.713 1.024-1.877 0-2.816-1.408-2.816-4.224 0-2.006.598-4.843 1.793-8.512 1.194-3.712 2.73-6.955 4.607-9.729 1.877-2.816 3.82-4.222 5.824-4.222.256 0 .449.192.577.576.128.341.254 1.066.382 2.176.043.725.13 1.321.258 1.79.128.47.406.706.832.706.214 0 .404-.47.574-1.408.214-.982.32-1.836.32-2.56 0-.513-.17-1.09-.511-1.73-.341-.64-.704-1.15-1.088-1.535-.683-.682-1.493-1.023-2.432-1.023zm-24.384 1.28c-.427 0-.724.128-.895.384-.128.213-.193.554-.193 1.024.043 1.792.128 4.351.256 7.68.128 3.285.278 6.655.449 10.11.299 5.249.576 8.813.832 10.69.299 1.877.746 2.836 1.344 2.879.469.043.873-.064 1.215-.32.384-.214.576-.533.576-.96 0-.597-.149-1.791-.448-3.583-.384-2.603-.576-3.968-.576-4.096-.256-2.603-.385-6.06-.385-10.37l.065-7.55c0-2.304-.127-3.861-.383-4.672-.256-.81-.876-1.217-1.857-1.217zm147.328.126c-2.645 0-5.205 1.046-7.68 3.137-2.475 2.048-4.48 4.715-6.015 8-1.536 3.243-2.305 6.527-2.305 9.855 0 3.542.917 6.167 2.752 7.874 1.834 1.706 4.117 2.558 6.847 2.558 3.328 0 6.124-1.107 8.385-3.326 2.304-2.219 4.01-4.63 5.12-7.232 1.151-2.603 1.728-4.29 1.728-5.057 0-.64-.149-.96-.447-.96-.171 0-.363.256-.577.768-.213.47-.363.789-.449.96-1.365 2.943-3.07 5.59-5.119 7.937-2.048 2.347-4.715 3.52-8 3.52-2.176 0-3.862-.684-5.057-2.05-1.152-1.365-1.726-3.284-1.726-5.76 0-1.876.255-3.796.767-5.759a40.113 40.113 0 0 0 8.32-2.305c2.689-1.066 4.864-2.303 6.528-3.71 1.707-1.408 2.56-2.859 2.56-4.352 0-1.323-.554-2.327-1.663-3.01-1.067-.725-2.39-1.088-3.97-1.088zm-191.233.32c-.17 0-.319.171-.447.512-.128.299-.257.812-.385 1.537-.426 1.792-.809 3.114-1.15 3.967-.981 2.518-2.412 5.483-4.29 8.897-1.876 3.413-3.774 6.357-5.694 8.832-1.878 2.432-3.372 3.648-4.48 3.648-.94 0-1.41-1.686-1.41-5.056 0-5.035.429-9.045 1.282-12.032.854-2.986 1.856-5.546 3.008-7.68.427-.767.639-1.259.639-1.472 0-.427-.533-.64-1.6-.64-.384 0-.725.172-1.023.513-.299.299-.662.895-1.088 1.791-1.024 2.005-1.942 4.928-2.752 8.768-.768 3.84-1.153 7.275-1.153 10.304 0 3.243.214 5.61.641 7.104.47 1.493 1.407 2.24 2.815 2.24 1.365 0 3.114-1.343 5.248-4.031 2.176-2.688 4.331-5.91 6.464-9.664 2.134-3.755 3.82-7.105 5.057-10.05.043.64.063 1.431.063 2.37 0 .896.021 1.792.064 2.688.085 5.589.214 9.3.385 11.134a20.72 20.72 0 0 0 1.28 5.569c.724 1.792 1.515 2.687 2.368 2.687.683 0 1.216-.19 1.6-.574.384-.384.576-.919.576-1.602 0-.128-.214-.447-.64-.959-.427-.554-.875-1.301-1.344-2.24-.427-.939-.726-2.24-.897-3.904-.213-1.92-.405-5.355-.576-10.305-.128-4.992-.191-8.51-.191-10.558 0-.427-.278-.833-.832-1.217-.555-.384-1.068-.576-1.538-.576zm131.649 0c-.17 0-.32.171-.447.512-.128.299-.257.812-.385 1.537-.427 1.792-.811 3.114-1.153 3.967-.98 2.518-2.41 5.483-4.287 8.897-1.877 3.413-3.775 6.357-5.695 8.832-1.877 2.432-3.371 3.648-4.48 3.648-.94 0-1.409-1.686-1.409-5.056 0-5.035.426-9.045 1.28-12.032.853-2.986 1.855-5.546 3.007-7.68.427-.767.641-1.259.641-1.472 0-.427-.533-.64-1.6-.64-.383 0-.724.172-1.023.513-.299.299-.661.895-1.088 1.791-1.024 2.005-1.941 4.928-2.752 8.768-.768 3.84-1.152 7.275-1.152 10.304 0 3.243.212 5.61.639 7.104.469 1.493 1.408 2.24 2.816 2.24 1.365 0 3.115-1.343 5.248-4.031 2.176-2.688 4.332-5.91 6.465-9.664 2.133-3.755 3.817-7.105 5.055-10.05.042.64.064 1.431.064 2.37 0 .896.022 1.792.065 2.688.085 5.589.212 9.3.382 11.134.171 1.92.599 3.777 1.282 5.569.725 1.792 1.513 2.687 2.367 2.687.682 0 1.215-.19 1.6-.574.383-.384.576-.919.576-1.602 0-.128-.212-.447-.64-.959-.426-.554-.874-1.301-1.343-2.24-.427-.939-.726-2.24-.896-3.904-.214-1.92-.406-5.355-.576-10.305-.128-4.992-.192-8.51-.192-10.558 0-.427-.277-.833-.832-1.217-.555-.384-1.068-.576-1.537-.576zm-187.647.385c-.512 0-.854.214-1.025.641-.17.384-.297 1.066-.383 2.047l-.45 6.465c-.34.981-.83 2.217-1.47 3.71-.64 1.494-1.238 2.689-1.793 3.585-1.194 1.92-2.24 3.35-3.136 4.289-.854.896-1.856 1.343-3.008 1.343-2.902 0-5.162-5.931-6.783-17.793-.256-1.749-.855-2.623-1.793-2.623-.64 0-.96.533-.96 1.6 0 1.707.363 4.395 1.088 8.064.768 3.67 1.815 6.955 3.137 9.856 1.323 2.901 2.815 4.352 4.479 4.352 1.792 0 3.521-1.003 5.185-3.008 1.707-2.048 3.135-4.182 4.287-6.4l-.959 8.831c-.469 4.054-.705 7.275-.705 9.664 0 3.158.149 5.484.448 6.977.34 1.493.79 2.24 1.345 2.24.726 0 1.429-.148 2.112-.447.682-.299 1.023-.641 1.023-1.025 0-.128-.17-.513-.512-1.153-.298-.597-.597-1.43-.896-2.496-.256-1.067-.383-2.517-.383-4.351 0-2.22.107-4.694.32-7.424.256-2.774.66-6.784 1.215-12.032.043-.469.32-2.58.832-6.335.47-3.286.705-5.42.705-6.4 0-.47-.214-.94-.64-1.41-.427-.511-.853-.767-1.28-.767zm16.768 1.664c-.853 0-1.664.3-2.432.897-.768.555-1.473 1.387-2.113 2.496a83.826 83.826 0 0 0-1.023 1.855c-1.366 2.39-2.432 5.098-3.2 8.127-.725 3.03-1.09 5.57-1.09 7.618 0 2.346.684 4.308 2.05 5.886 1.365 1.579 3.477 2.37 6.335 2.37 2.902 0 5.483-.77 7.744-2.305 2.262-1.579 4.011-3.455 5.248-5.631 1.237-2.175 1.855-4.096 1.856-5.76v-.002c0-1.962-.577-3.669-1.729-5.119-1.152-1.45-2.58-2.88-4.287-4.287-.853-.725-1.279-1.153-1.279-1.281 0-.128.063-.277.191-.448.171-.213.256-.361.256-.447 0-.17-.085-.278-.256-.32-.17-.086-.533-.13-1.087-.13-.982 0-1.836.171-2.561.513-.725.298-1.088.704-1.088 1.216 0 .342.256.768.768 1.28s1.324 1.173 2.433 1.984c1.707 1.237 3.05 2.41 4.032 3.52.98 1.109 1.472 2.41 1.472 3.904 0 1.323-.491 2.795-1.472 4.416-.982 1.579-2.305 2.922-3.97 4.031-1.62 1.11-3.39 1.664-5.31 1.664-4.096 0-6.144-1.684-6.144-5.054 0-2.518.319-4.844.959-6.977.682-2.133 1.621-4.287 2.816-6.463.896-1.707 2.069-3.436 3.52-5.185.128-.171.3-.405.513-.704.256-.34.383-.555.383-.64 0-.299-.17-.533-.512-.703a1.716 1.716 0 0 0-1.023-.32zm229.695.256c.939 0 1.75.192 2.432.576.725.384 1.088.917 1.088 1.6s-.747 1.556-2.24 2.623c-1.451 1.067-3.264 2.05-5.44 2.945-2.176.896-4.246 1.451-6.209 1.664.299-1.152.94-2.475 1.922-3.968a15.37 15.37 0 0 1 3.775-3.84c1.494-1.067 3.051-1.6 4.672-1.6z" transform="matrix(.26458 0 0 .26458 -47.277 -123.351)"/>
    </g>
</svg>